<svg width="1200" height="800" viewBox="0 0 1200 800" fill="none" xmlns="http://www.w3.org/2000/svg">
  <defs>
    <linearGradient id="g" x1="0" y1="0" x2="1200" y2="800" gradientUnits="userSpaceOnUse">
      <stop offset="0" stop-color="#14B8A6" stop-opacity="0.22"/>
      <stop offset="1" stop-color="#34D399" stop-opacity="0.10"/>
    </linearGradient>
    <filter id="b" x="-40" y="-40" width="1280" height="880" filterUnits="userSpaceOnUse" color-interpolation-filters="sRGB">
      <feGaussianBlur stdDeviation="18"/>
    </filter>
  </defs>

  <rect width="1200" height="800" fill="url(#g)"/>

  <g opacity="0.8" filter="url(#b)">
    <circle cx="260" cy="260" r="140" fill="#14B8A6" fill-opacity="0.35"/>
    <circle cx="980" cy="560" r="180" fill="#34D399" fill-opacity="0.22"/>
  </g>

  <!-- Minimal “happy family” line illustration (abstract, brand-safe) -->
  <g opacity="0.85" stroke="#B9FFF6" stroke-opacity="0.35" stroke-width="10" stroke-linecap="round" stroke-linejoin="round">
    <!-- heads -->
    <circle cx="470" cy="310" r="44"/>
    <circle cx="730" cy="310" r="44"/>
    <circle cx="600" cy="360" r="36"/>
    <!-- shoulders -->
    <path d="M390 510c26-92 78-138 156-138s130 46 156 138"/>
    <path d="M650 510c18-70 56-106 114-106s96 36 114 106"/>
    <path d="M350 510c18-70 56-106 114-106s96 36 114 106"/>
    <!-- heart -->
    <path d="M600 584c-54-36-92-74-92-116 0-28 20-52 52-52 18 0 32 8 40 20 8-12 22-20 40-20 32 0 52 24 52 52 0 42-38 80-92 116z"/>
  </g>
</svg>
